<?xml version="1.0" encoding="UTF-8"?>
<svg version="1.1" xmlns="http://www.w3.org/2000/svg" width="512" height="512">
<path d="M0 0 C1.37045026 -0.00542487 2.74089468 -0.01254958 4.11132812 -0.02124023 C7.82214736 -0.03943355 11.53252041 -0.0324229 15.24334717 -0.01972389 C19.13229549 -0.00957537 23.02120638 -0.0189947 26.91015625 -0.02526855 C33.44017372 -0.03253959 39.97001005 -0.02297163 46.5 -0.00390625 C54.04255185 0.01786159 61.58467116 0.01080982 69.12721252 -0.01121187 C75.61063837 -0.02938147 82.09393423 -0.03191662 88.57737732 -0.0214572 C92.44635098 -0.01523078 96.31512153 -0.01436299 100.18408203 -0.02760315 C103.82206402 -0.03918392 107.45949 -0.03109613 111.09741211 -0.00802612 C113.06428265 -0.00024035 115.03120039 -0.01207597 116.99804688 -0.02453613 C127.99790071 0.08082645 127.99790071 0.08082645 132.5625 4.51757812 C137.74932656 9.9791535 137.08054976 15.8167158 136.953125 22.91601562 C136.94746521 24.10611237 136.94180542 25.29620911 136.93597412 26.52236938 C136.91363451 30.31285299 136.86343963 34.10238157 136.8125 37.89257812 C136.79243201 40.4667832 136.77418177 43.04100313 136.7578125 45.61523438 C136.71377745 51.91633991 136.64688805 58.21689077 136.5625 64.51757812 C137.71379363 64.51204737 137.71379363 64.51204737 138.88834572 64.50640488 C157.56696999 64.41805434 176.24555254 64.35186876 194.9243412 64.31032944 C203.95728689 64.2897072 212.99009307 64.26159311 222.02294922 64.21582031 C229.89630902 64.17594214 237.76956777 64.15014285 245.64302576 64.14122415 C249.81172149 64.13601104 253.98012817 64.12376556 258.14873123 64.0946579 C262.07380743 64.06747318 265.99847599 64.05913921 269.92363739 64.0651474 C271.36276592 64.06404852 272.80190833 64.0561125 274.24095535 64.04075623 C276.20933369 64.02078474 278.17793161 64.0280398 280.14639282 64.03656006 C281.24701365 64.03287289 282.34763447 64.02918571 283.48160744 64.02538681 C288.44234921 64.81789546 291.54254163 67.44393774 294.9375 71.01757812 C297.33553575 76.18257821 297.31631535 80.91780692 296.5625 86.51757812 C294.40877746 91.15636514 291.34492924 94.56470374 286.5625 96.51757812 C282.3526383 97.06756762 278.18458045 96.98287339 273.9453125 96.90820312 C272.73301971 96.90254333 271.52072693 96.89688354 270.271698 96.89105225 C266.40989251 96.86870971 262.54902382 96.8185141 258.6875 96.76757812 C256.06511759 96.74751052 253.4427206 96.72926021 250.8203125 96.71289062 C244.40071293 96.66885157 237.98170301 96.60034411 231.5625 96.51757812 C231.50169282 98.1946851 231.50169282 98.1946851 231.43965721 99.90567303 C230.77712232 116.42126626 229.40395014 132.87469559 228.03866482 149.34318721 C227.68702524 153.59433262 227.33958288 157.84582163 226.99150085 162.09725952 C226.23304812 171.35072684 225.46915009 180.60373948 224.70395708 189.85665154 C224.22560342 195.64104297 223.74829842 201.42552065 223.27116013 207.21001244 C221.94758373 223.25345911 220.62257207 239.29678585 219.29241371 255.3396883 C219.20764279 256.3621346 219.12287187 257.38458089 219.03553214 258.43801041 C218.90809362 259.97506501 218.90809362 259.97506501 218.77808058 261.54317123 C218.60595741 263.61919402 218.4338368 265.69521702 218.26171875 267.77124023 C218.17634335 268.80099077 218.09096796 269.83074131 218.00300543 270.89169642 C216.61612235 287.622877 215.23961019 304.35489368 213.86746605 321.08728883 C212.45569384 338.301065 211.03522971 355.51410596 209.60605085 372.72644585 C208.80492932 382.37724804 208.00755164 392.02832699 207.21980667 401.68023109 C206.55012434 409.88509244 205.8725253 418.08925136 205.18456699 426.29260138 C204.83401904 430.47545962 204.48722375 434.65853944 204.15054512 438.84253883 C203.84214435 442.67399439 203.52300256 446.50439958 203.19537561 450.33425763 C203.07891946 451.71768108 202.96636208 453.10143961 202.85816069 454.48553316 C201.45823945 472.32212709 201.45823945 472.32212709 195.5 477.45507812 C191.93955093 479.9549679 190.39763062 480.64241616 186.14770889 480.6517992 C185.21387697 480.65625705 184.28004506 480.66071489 183.3179152 480.66530782 C182.28505946 480.66512346 181.25220372 480.66493909 180.18804932 480.66474915 C179.09618183 480.66842583 178.00431434 480.67210252 176.87935996 480.67589062 C173.19593583 480.68696319 169.51253987 480.69077734 165.82910156 480.69458008 C163.19818023 480.70084199 160.56725979 480.70748855 157.93634033 480.7144928 C150.02310258 480.73426773 142.10986352 480.74432487 134.19660723 480.75322059 C130.47160357 480.75760194 126.74660134 480.76296916 123.02159882 480.76820946 C110.64124471 480.78522303 98.2608915 480.79971755 85.8805275 480.8069582 C82.66677092 480.80886815 79.45301436 480.81078847 76.23925781 480.81274414 C75.44047792 480.81322788 74.64169803 480.81371162 73.81871268 480.81421002 C60.87686301 480.82251162 47.93510573 480.84785012 34.99329641 480.88032482 C21.7110365 480.91338249 8.42882356 480.9314058 -4.85347772 480.93460244 C-12.31295769 480.93676878 -19.77230294 480.94553536 -27.23174286 480.97106361 C-33.58421416 480.99275306 -39.93651804 481.00082979 -46.28902218 480.99109683 C-49.53035607 480.98654686 -52.77127166 480.99065279 -56.01257324 481.00785828 C-59.52704762 481.02547247 -63.04064075 481.01852176 -66.55511475 481.00532532 C-67.5790476 481.01629456 -68.60298046 481.02726381 -69.65794158 481.03856546 C-75.40786481 480.98631362 -79.00790429 480.55876862 -83.4375 476.51757812 C-86.92123249 472.04199064 -88.04522427 468.70609101 -88.60365868 463.08713436 C-88.67721601 462.38815896 -88.75077334 461.68918357 -88.82655969 460.9690271 C-89.04774455 458.81983077 -89.24497216 456.66951078 -89.4375 454.51757812 C-89.5567821 453.28000704 -89.67606421 452.04243595 -89.79896092 450.76736271 C-90.1496536 446.98148515 -90.46827484 443.19404201 -90.77896118 439.40467834 C-90.90002746 437.95770499 -91.02138274 436.5107558 -91.14299715 435.06382841 C-91.47209049 431.13844727 -91.79710879 427.21273838 -92.12137794 423.28695619 C-92.47341255 419.03392833 -92.82930531 414.78122297 -93.18467712 410.5284729 C-93.87838943 402.21929911 -94.56852384 393.90983198 -95.25732352 385.60024966 C-95.81723954 378.8462264 -96.37843668 372.09231072 -96.94053268 365.33846855 C-97.06085443 363.89271646 -97.06085443 363.89271646 -97.18360692 362.41775725 C-97.34659439 360.45940018 -97.50958433 358.5010433 -97.67257671 356.54268663 C-99.19756596 338.21799588 -100.71842822 319.89296439 -102.23789994 301.56781542 C-103.54096971 285.85376658 -104.84776624 270.14003122 -106.15722656 254.42651367 C-107.6799943 236.15329814 -109.20032919 217.87988278 -110.71688497 199.60615057 C-110.87861928 197.65742586 -111.04035722 195.70870145 -111.20209885 193.75997734 C-111.28166807 192.80128907 -111.36123729 191.8426008 -111.4432177 190.85486137 C-112.00339821 184.10761806 -112.56532783 177.36052173 -113.12794876 170.61348152 C-113.81333109 162.39376603 -114.49607757 154.17383669 -115.17545034 145.95362223 C-115.52194506 141.76196152 -115.86962049 137.57040782 -116.22052956 133.37911415 C-116.54192665 129.53991426 -116.85987126 125.70044437 -117.17510836 121.86073392 C-117.28950248 120.47468208 -117.40513824 119.088732 -117.52216764 117.70290018 C-118.11981277 110.6172785 -118.57136305 103.6294063 -118.4375 96.51757812 C-119.45108078 96.53090179 -119.45108078 96.53090179 -120.48513794 96.54449463 C-127.52548758 96.63306923 -134.56567862 96.69335483 -141.60644531 96.73730469 C-144.23313833 96.75740528 -146.85978669 96.78469017 -149.48632812 96.81933594 C-153.26443512 96.86791976 -157.04194984 96.89056321 -160.8203125 96.90820312 C-161.99240265 96.92884827 -163.1644928 96.94949341 -164.37210083 96.97076416 C-170.71618413 96.97250553 -174.64861202 96.84372853 -179.4375 92.51757812 C-183.06583663 88.6982764 -183.74750458 85.63478806 -183.9375 80.51757812 C-183.74750458 75.40036819 -183.06583663 72.33687985 -179.4375 68.51757812 C-175.15644464 65.2045478 -172.42704475 64.01845067 -167.02139282 64.03656006 C-165.75102173 64.0310614 -164.48065063 64.02556274 -163.17178345 64.01989746 C-161.7767906 64.03405128 -160.38180163 64.04859048 -158.98681641 64.06347656 C-157.50811799 64.06460566 -156.02941733 64.06396996 -154.55072021 64.06170654 C-150.54687335 64.06056088 -146.54350773 64.08404592 -142.53977251 64.11200237 C-138.35176579 64.1370408 -134.16374751 64.13935995 -129.97567749 64.144104 C-122.04967765 64.15652663 -114.12389902 64.18933851 -106.1979965 64.22950196 C-97.17266736 64.27424193 -88.14732756 64.2962123 -79.1219151 64.3162837 C-60.56031808 64.35807183 -41.99892684 64.42840994 -23.4375 64.51757812 C-23.44638245 63.85438568 -23.45526489 63.19119324 -23.4644165 62.50790405 C-23.55299956 55.59731679 -23.61328015 48.68689117 -23.65722656 41.77587891 C-23.67732563 39.19768725 -23.70460941 36.61954108 -23.73925781 34.04150391 C-23.78784847 30.33289352 -23.81048658 26.62488657 -23.828125 22.91601562 C-23.84877014 21.76579926 -23.86941528 20.61558289 -23.89068604 19.43051147 C-23.89239244 13.32686068 -23.84767693 9.16136434 -19.4375 4.51757812 C-13.86738301 -0.8965282 -7.3010497 -0.04625287 0 0 Z M8.5625 32.51757812 C8.5625 43.07757813 8.5625 53.63757813 8.5625 64.51757812 C40.2425 64.51757812 71.9225 64.51757812 104.5625 64.51757812 C104.5625 53.95757812 104.5625 43.39757812 104.5625 32.51757812 C72.8825 32.51757812 41.2025 32.51757812 8.5625 32.51757812 Z M-85.4375 96.51757812 C-84.60760847 111.6053538 -84.60760847 111.6053538 -83.48876953 126.66424561 C-83.39878252 127.75344968 -83.30879551 128.84265376 -83.21608162 129.96486402 C-82.91982475 133.5435058 -82.62009308 137.12184712 -82.3203125 140.70019531 C-82.10483674 143.29405038 -81.88957168 145.88792296 -81.67449951 148.48181152 C-81.15435014 154.75006643 -80.63156046 161.01809831 -80.1077733 167.28605017 C-79.68215153 172.37988916 -79.25751362 177.47380931 -78.83355713 182.56778717 C-78.77292339 183.29631138 -78.71228966 184.02483559 -78.64981854 184.7754363 C-78.5266096 186.25586211 -78.40340287 187.73628811 -78.28019834 189.21671429 C-77.12940669 203.04325576 -75.97559059 216.86954354 -74.82071233 230.69574419 C-73.83057315 242.55054637 -72.84305341 254.40556441 -71.85742188 266.26074219 C-70.71009361 280.06079381 -69.56115415 293.86070974 -68.40964317 307.66041303 C-68.28690767 309.13132793 -68.16417422 310.60224301 -68.04144287 312.07315826 C-67.95088078 313.15851485 -67.95088078 313.15851485 -67.85848916 314.26579784 C-67.43373509 319.3576722 -67.0101313 324.44964149 -66.5869751 329.54164886 C-66.01804679 336.38737389 -65.44648543 343.23287483 -64.87314606 350.07823181 C-64.66306655 352.59124396 -64.45383471 355.10432713 -64.24550629 357.61748505 C-63.96137459 361.04342454 -63.67419477 364.4690952 -63.38623047 367.89471436 C-63.30422457 368.8921695 -63.22221867 369.88962465 -63.13772774 370.91730571 C-63.05971869 371.83776785 -62.98170963 372.75822999 -62.90133667 373.70658493 C-62.83542768 374.49651864 -62.7695187 375.28645235 -62.70161247 376.10032344 C-62.39344844 378.92075428 -61.90393545 381.7189654 -61.4375 384.51757812 C16.4425 384.51757812 94.3225 384.51757812 174.5625 384.51757812 C176.24503592 369.45390331 176.24503592 369.45390331 177.63821411 354.37091064 C177.72976111 353.28170657 177.82130811 352.19250249 177.91562927 351.07029223 C178.21578008 347.49203928 178.5124548 343.91350756 178.80908203 340.33496094 C179.0259183 337.74107174 179.24296526 335.14720015 179.46020508 332.55334473 C179.98473567 326.28543861 180.50662575 320.01731545 181.02751864 313.74910608 C181.45088226 308.65511991 181.87522969 303.56121656 182.30025864 298.46736908 C182.3610456 297.73884487 182.42183257 297.01032066 182.48446157 296.25971995 C182.6079903 294.77929377 182.73152124 293.29886777 182.85505436 291.81844196 C184.00865333 277.99229555 185.15922771 264.16589875 186.30874 250.33941206 C187.29443411 238.48421394 188.28274748 226.62923651 189.27294922 214.77441406 C190.42560267 200.97468432 191.57664486 187.17482174 192.72511566 173.37474322 C192.84753266 171.90382797 192.96995173 170.43291289 193.09237289 168.96199799 C193.15259334 168.23842693 193.2128138 167.51485587 193.27485911 166.76935841 C193.69876347 161.67733138 194.12381802 156.58540112 194.54932022 151.49350739 C195.12131339 144.64817371 195.69067304 137.80262526 196.258255 130.95692444 C196.46702285 128.44376791 196.67663856 125.93068166 196.88715744 123.4176712 C197.17398365 119.99211404 197.45775976 116.56631751 197.74075317 113.14044189 C197.8249898 112.14298675 197.90922642 111.1455316 197.99601567 110.11785054 C198.07141697 109.1973884 198.14681828 108.27692626 198.22450447 107.32857132 C198.32312442 106.14367076 198.32312442 106.14367076 198.42373669 104.93483281 C198.58455891 102.13331224 198.5625 99.32371093 198.5625 96.51757812 C104.8425 96.51757812 11.1225 96.51757812 -85.4375 96.51757812 Z M-58.4375 416.51757812 C-58.4375 427.20505782 -57.45077025 437.87824048 -56.4375 448.51757812 C18.1425 448.51757812 92.7225 448.51757812 169.5625 448.51757812 C170.57577025 437.87824048 171.5625 427.20505782 171.5625 416.51757812 C95.6625 416.51757812 19.7625 416.51757812 -58.4375 416.51757812 Z " fill="#000000" transform="translate(199.4375,15.482421875)"/>
<path d="M0 0 C4.96938909 2.30721636 7.36502559 5.25384111 10 10 C10.37853654 12.93846755 10.54180205 15.49490079 10.50793457 18.42578125 C10.51417453 19.25971909 10.5204145 20.09365692 10.52684355 20.9528656 C10.54276393 23.73970031 10.53017317 26.52565921 10.51757812 29.3125 C10.52299967 31.31348174 10.53012251 33.31445949 10.53881836 35.31542969 C10.55705072 40.74515575 10.54998443 46.17457772 10.53730202 51.60430908 C10.52717397 57.28699563 10.53656716 62.96965618 10.54284668 68.65234375 C10.55012363 78.19536004 10.54053405 87.73825251 10.52148438 97.28125 C10.49971561 108.31377588 10.50676694 119.34600607 10.52879 130.37852478 C10.54694256 139.85129833 10.549503 149.32398287 10.53903532 158.79676819 C10.53279963 164.45424242 10.53196693 170.11157767 10.54518127 175.76904297 C10.55673697 181.08790934 10.5487189 186.40639453 10.52560425 191.72521973 C10.5203157 193.67711758 10.52183342 195.62904753 10.53065491 197.58093262 C10.54158817 200.24579422 10.52787389 202.90943491 10.50793457 205.57421875 C10.51685746 206.34640244 10.52578034 207.11858612 10.53497362 207.91416931 C10.45981984 213.09344365 9.24366202 215.99703384 6 220 C2.18069828 223.62833663 -0.88279006 224.31000458 -6 224.5 C-11.11720994 224.31000458 -14.18069828 223.62833663 -18 220 C-21.8426519 215.25782729 -22.57656348 211.51334176 -22.50793457 205.57421875 C-22.51417453 204.74028091 -22.5204145 203.90634308 -22.52684355 203.0471344 C-22.54276393 200.26029969 -22.53017317 197.47434079 -22.51757812 194.6875 C-22.52299967 192.68651826 -22.53012251 190.68554051 -22.53881836 188.68457031 C-22.55705072 183.25484425 -22.54998443 177.82542228 -22.53730202 172.39569092 C-22.52717397 166.71300437 -22.53656716 161.03034382 -22.54284668 155.34765625 C-22.55012363 145.80463996 -22.54053405 136.26174749 -22.52148438 126.71875 C-22.49971561 115.68622412 -22.50676694 104.65399393 -22.52879 93.62147522 C-22.54694256 84.14870167 -22.549503 74.67601713 -22.53903532 65.20323181 C-22.53279963 59.54575758 -22.53196693 53.88842233 -22.54518127 48.23095703 C-22.55673697 42.91209066 -22.5487189 37.59360547 -22.52560425 32.27478027 C-22.5203157 30.32288242 -22.52183342 28.37095247 -22.53065491 26.41906738 C-22.54158817 23.75420578 -22.52787389 21.09056509 -22.50793457 18.42578125 C-22.51685746 17.65359756 -22.52578034 16.88141388 -22.53497362 16.08583069 C-22.45981984 10.90655635 -21.24366202 8.00296616 -18 4 C-12.72867143 -1.00776214 -6.89190982 -0.92775709 0 0 Z " fill="#000000" transform="translate(326,144)"/>
<path d="M0 0 C4.96938909 2.30721636 7.36502559 5.25384111 10 10 C10.37853654 12.93846755 10.54180205 15.49490079 10.50793457 18.42578125 C10.51417453 19.25971909 10.5204145 20.09365692 10.52684355 20.9528656 C10.54276393 23.73970031 10.53017317 26.52565921 10.51757812 29.3125 C10.52299967 31.31348174 10.53012251 33.31445949 10.53881836 35.31542969 C10.55705072 40.74515575 10.54998443 46.17457772 10.53730202 51.60430908 C10.52717397 57.28699563 10.53656716 62.96965618 10.54284668 68.65234375 C10.55012363 78.19536004 10.54053405 87.73825251 10.52148438 97.28125 C10.49971561 108.31377588 10.50676694 119.34600607 10.52879 130.37852478 C10.54694256 139.85129833 10.549503 149.32398287 10.53903532 158.79676819 C10.53279963 164.45424242 10.53196693 170.11157767 10.54518127 175.76904297 C10.55673697 181.08790934 10.5487189 186.40639453 10.52560425 191.72521973 C10.5203157 193.67711758 10.52183342 195.62904753 10.53065491 197.58093262 C10.54158817 200.24579422 10.52787389 202.90943491 10.50793457 205.57421875 C10.51685746 206.34640244 10.52578034 207.11858612 10.53497362 207.91416931 C10.45981984 213.09344365 9.24366202 215.99703384 6 220 C2.18069828 223.62833663 -0.88279006 224.31000458 -6 224.5 C-11.11720994 224.31000458 -14.18069828 223.62833663 -18 220 C-21.8426519 215.25782729 -22.57656348 211.51334176 -22.50793457 205.57421875 C-22.51417453 204.74028091 -22.5204145 203.90634308 -22.52684355 203.0471344 C-22.54276393 200.26029969 -22.53017317 197.47434079 -22.51757812 194.6875 C-22.52299967 192.68651826 -22.53012251 190.68554051 -22.53881836 188.68457031 C-22.55705072 183.25484425 -22.54998443 177.82542228 -22.53730202 172.39569092 C-22.52717397 166.71300437 -22.53656716 161.03034382 -22.54284668 155.34765625 C-22.55012363 145.80463996 -22.54053405 136.26174749 -22.52148438 126.71875 C-22.49971561 115.68622412 -22.50676694 104.65399393 -22.52879 93.62147522 C-22.54694256 84.14870167 -22.549503 74.67601713 -22.53903532 65.20323181 C-22.53279963 59.54575758 -22.53196693 53.88842233 -22.54518127 48.23095703 C-22.55673697 42.91209066 -22.5487189 37.59360547 -22.52560425 32.27478027 C-22.5203157 30.32288242 -22.52183342 28.37095247 -22.53065491 26.41906738 C-22.54158817 23.75420578 -22.52787389 21.09056509 -22.50793457 18.42578125 C-22.51685746 17.65359756 -22.52578034 16.88141388 -22.53497362 16.08583069 C-22.45981984 10.90655635 -21.24366202 8.00296616 -18 4 C-12.72867143 -1.00776214 -6.89190982 -0.92775709 0 0 Z " fill="#000000" transform="translate(262,144)"/>
<path d="M0 0 C4.96938909 2.30721636 7.36502559 5.25384111 10 10 C10.37853654 12.93846755 10.54180205 15.49490079 10.50793457 18.42578125 C10.51417453 19.25971909 10.5204145 20.09365692 10.52684355 20.9528656 C10.54276393 23.73970031 10.53017317 26.52565921 10.51757812 29.3125 C10.52299967 31.31348174 10.53012251 33.31445949 10.53881836 35.31542969 C10.55705072 40.74515575 10.54998443 46.17457772 10.53730202 51.60430908 C10.52717397 57.28699563 10.53656716 62.96965618 10.54284668 68.65234375 C10.55012363 78.19536004 10.54053405 87.73825251 10.52148438 97.28125 C10.49971561 108.31377588 10.50676694 119.34600607 10.52879 130.37852478 C10.54694256 139.85129833 10.549503 149.32398287 10.53903532 158.79676819 C10.53279963 164.45424242 10.53196693 170.11157767 10.54518127 175.76904297 C10.55673697 181.08790934 10.5487189 186.40639453 10.52560425 191.72521973 C10.5203157 193.67711758 10.52183342 195.62904753 10.53065491 197.58093262 C10.54158817 200.24579422 10.52787389 202.90943491 10.50793457 205.57421875 C10.51685746 206.34640244 10.52578034 207.11858612 10.53497362 207.91416931 C10.45981984 213.09344365 9.24366202 215.99703384 6 220 C2.18069828 223.62833663 -0.88279006 224.31000458 -6 224.5 C-11.11720994 224.31000458 -14.18069828 223.62833663 -18 220 C-21.8426519 215.25782729 -22.57656348 211.51334176 -22.50793457 205.57421875 C-22.51417453 204.74028091 -22.5204145 203.90634308 -22.52684355 203.0471344 C-22.54276393 200.26029969 -22.53017317 197.47434079 -22.51757812 194.6875 C-22.52299967 192.68651826 -22.53012251 190.68554051 -22.53881836 188.68457031 C-22.55705072 183.25484425 -22.54998443 177.82542228 -22.53730202 172.39569092 C-22.52717397 166.71300437 -22.53656716 161.03034382 -22.54284668 155.34765625 C-22.55012363 145.80463996 -22.54053405 136.26174749 -22.52148438 126.71875 C-22.49971561 115.68622412 -22.50676694 104.65399393 -22.52879 93.62147522 C-22.54694256 84.14870167 -22.549503 74.67601713 -22.53903532 65.20323181 C-22.53279963 59.54575758 -22.53196693 53.88842233 -22.54518127 48.23095703 C-22.55673697 42.91209066 -22.5487189 37.59360547 -22.52560425 32.27478027 C-22.5203157 30.32288242 -22.52183342 28.37095247 -22.53065491 26.41906738 C-22.54158817 23.75420578 -22.52787389 21.09056509 -22.50793457 18.42578125 C-22.51685746 17.65359756 -22.52578034 16.88141388 -22.53497362 16.08583069 C-22.45981984 10.90655635 -21.24366202 8.00296616 -18 4 C-12.72867143 -1.00776214 -6.89190982 -0.92775709 0 0 Z " fill="#000000" transform="translate(198,144)"/>
</svg>
